<svg xmlns="http://www.w3.org/2000/svg"><defs><symbol id="post" stroke-linecap="round" stroke-linejoin="round" viewBox="0 0 128 128"><path d="M16 2h84c8 0 12 6 13 13l6 60c0 6 2 12-6 12H99c0 16-22 32-82 32 12 0 48-8 48-32H22c-12 0-12-6-12-12L3 11C2 6 5 2 16 2z"/></symbol><symbol id="local" stroke-linecap="round" stroke-linejoin="round" viewBox="0 0 128 128"><g class="house3"><path d="M20 71V11h78v16l-22-8v80h-8V79L36 63z" class="house-outline"/><path d="M36 36h40V26H36zm0 24h40V50H36z" class="house-window"/></g><g class="house2"><path d="M76 116V20l46 16v80z" class="house-outline"/><path d="M88 48h18v18H88zm0 32h18v18H88z" class="house-window"/></g><g class="house1"><path d="M4 127V79l32-16 32 16v48z" class="house-outline"/><path d="M16 88h25v18H16z" class="house-window"/></g></symbol><symbol id="home" stroke-linecap="round" stroke-linejoin="round" viewBox="0 0 128 128"><path d="M4 124V44L64 4l60 40v80z" class="house-outline"/><path d="M16 52v20h38V52zm0 36v20h38V88zm56-36v20h38V52zm0 36v20h38V88z" class="house-window"/></symbol><symbol id="global" stroke-linecap="round" stroke-linejoin="round" viewBox="0 0 128 128"><path d="M84 92c0 11-3 24-12 31m2-93c18 2 37 10 47 26M31 67c-7 6-15 13-25 13m0 2c11 18 29 33 50 38l12 3M59 5c6 8 12 15 16 25 9-5 17-8 27-10m-12 96c3-9-2-16-6-24 15 0 29-10 37-22m-90-3C20 67 13 57 6 48m25 19c13 15 34 21 53 25 2-20 2-41-7-59-2-8-10 2-15 3a97 97 0 0 0-31 31zm91-3c1 38-41 69-77 57-38-10-55-60-32-91 21-32 73-34 96-3a59 59 0 0 1 12 37z" class="globe"/><circle id="circle4959" cx="76" cy="30" r="8" class="globe-node"/><circle id="circle4961" cx="85" cy="90" r="8" class="globe-node"/><circle id="circle4963" cx="30" cy="68" r="8" class="globe-node"/></symbol><symbol id="exit" stroke-linejoin="round" viewBox="0 0 128 128"><path d="M80 4H20C11 4 4 10 4 20v87c0 10 7 16 16 16h59V92H64v10H23V23h41v9h15z" class="exit-door"/><path d="M40 50h53V25l28 38-28 37V75H37z" class="exit-arrow"/></symbol><symbol id="settings" stroke-linecap="round" stroke-linejoin="round" viewBox="0 0 128 128"><path d="M52 16l3-12h19l3 12M20 44l-8-10 12-15 12 5M22 86H9L5 67l11-5m40 50l-8 10-17-8 2-13m63-1l3 13-17 8-9-10m39-51l12 6-5 18h-13M92 24l12-5 11 14-7 11" class="gear-tooth"/><circle id="circle4985" cx="64" cy="63" r="47" class="gear-outer-circle"/><circle id="circle4987" cx="64" cy="63" r="30" class="gear-inner-circle"/></symbol><symbol id="search" stroke-linecap="round" stroke-linejoin="round" viewBox="0 0 128 128"><path d="M79 92l25 32c11 0 16-4 16-16L92 82" class="magnifier-handle"/><circle id="circle4992" cx="54" cy="52" r="47" class="magnifier-frame"/><circle id="circle4994" cx="54" cy="52" r="30" class="magnifier-lens"/></symbol><symbol id="fave" viewBox="0 0 128 128"><path d="M63 6c2 0 13 41 15 43 2 1 44-2 45 0 0 3-35 25-36 27-1 3 15 42 13 43-2 2-35-25-37-25s-35 27-37 25c-1-1 14-40 13-43 0-2-36-24-35-27 0-2 43 1 44 0 2-2 13-43 15-43z"/></symbol><symbol id="boost" viewBox="0 0 128 128"><path d="M66 69l-9-10c-41 7-35 39-50 60 22-14 53-10 59-50z" class="rocket-flame"/><path d="M60 44l-31 6s22-44 34-9zm22 22l-6 31s43-22 9-34z" class="rocket-fin"/><path d="M54 59C76 6 119 6 119 6s0 44-53 66" class="rocket-body"/></symbol><symbol id="profile" viewBox="0 0 128 128"><path d="M113 2c-28 9-58 15-87 10-6-1-12-3-17-6 2 29 6 57 14 85 4 11 9 24 19 32 7 4 15 4 22 3 18-3 31-18 37-34 10-29 14-60 12-90z" class="mask-outline"/><path d="M35 90c13 2 34 0 47-1-3 9-36 20-47 1zM23 47c-1 5 19 21 26 3 0 0-7-11-26-3zm42 5s5-15 28-7c-14 24-28 7-28 7z" class="mask-features"/></symbol></defs></svg>